<?xml version="1.0" encoding="iso-8859-1"?>
<!-- Generator: Adobe Illustrator 18.1.1, SVG Export Plug-In . SVG Version: 6.00 Build 0)  -->
<svg xmlns="http://www.w3.org/2000/svg" xmlns:xlink="http://www.w3.org/1999/xlink" version="1.1" id="Capa_1" x="0px" y="0px" viewBox="0 0 459.426 459.426" style="enable-background:new 0 0 459.426 459.426;" xml:space="preserve" width="512px" height="512px">
<g>
	<g>
		<path d="M207.745,444.731c0,0,7.974-8.933,21.972-9.827c13.997,0.894,21.972,9.827,21.972,9.827    c123.546,82.993,206.978-209.75,152.427-274.283s-111.516-48.967-141.193-38.505c-6.584,2.325-12.168,3.853-17.127,5.007    c0.228,2.495,0.496,5.023,0.886,7.649c0.845,5.763-0.683,11.25-4.308,15.452c-3.861,4.463-9.73,7.121-15.729,7.121    c-8.99,0-15.672-5.893-17.013-15.005c-0.854-5.812-1.317-11.282-1.618-16.615c-0.536-0.146-1.089-0.309-1.642-0.471    c-5.064,2.544-10.909,4.007-17.672,4.007c-14.623,0-31.173-6.397-45.739-16.607c-26.613,1.114-57.502,12.29-87.659,47.959    C0.767,234.981,84.199,527.723,207.745,444.731z" fill="#FFFFFF"/>
		<path d="M159.909,123.067c9.754,4.918,19.785,7.901,28.8,7.901c1.398,0,2.658-0.203,3.959-0.341    c6.113-0.626,11.161-2.707,15.119-6.218c0.26-16.257,3.113-30.498,8.112-43.65c-1.024-2.487-2.276-4.706-3.967-6.43    c-4.251-4.324-10.925-6.511-19.817-6.511c-24.695,0-58.558,16.59-69.703,22.427C131.345,103.891,145.318,115.71,159.909,123.067z" fill="#FFFFFF"/>
		<path d="M216.256,137.609c0.309,4.316,0.748,8.738,1.431,13.388c1.065,7.275,6.617,8.055,8.966,8.064    c3.609,0,7.283-1.65,9.575-4.308c2.089-2.414,2.918-5.511,2.414-8.958c-0.366-2.487-0.602-4.853-0.837-7.226    c-4.633-46.853,15.745-71.491,43.52-104.907c3.577-4.308,7.283-8.771,11.079-13.453c4.3-5.308,2.382-10.884,1.357-13.038    C291.746,2.951,287.86,0,284.308,0c-2.243,0-4.316,1.162-6.17,3.438l-7.039,8.649c-20.386,25.012-36.969,45.455-46.495,68.784    c-0.959,2.349-1.837,4.747-2.65,7.161c-3.406,10.136-5.495,20.939-5.991,32.953c-0.089,2.292-0.146,4.609-0.13,6.991    C215.866,131.098,216.02,134.317,216.256,137.609z" fill="#FFFFFF"/>
	</g>
</g>
<g>
</g>
<g>
</g>
<g>
</g>
<g>
</g>
<g>
</g>
<g>
</g>
<g>
</g>
<g>
</g>
<g>
</g>
<g>
</g>
<g>
</g>
<g>
</g>
<g>
</g>
<g>
</g>
<g>
</g>
</svg>
