<?xml version="1.0" encoding="iso-8859-1"?>
<!-- Generator: Adobe Illustrator 18.0.0, SVG Export Plug-In . SVG Version: 6.00 Build 0)  -->
<!DOCTYPE svg PUBLIC "-//W3C//DTD SVG 1.1//EN" "http://www.w3.org/Graphics/SVG/1.1/DTD/svg11.dtd">
<svg xmlns="http://www.w3.org/2000/svg" xmlns:xlink="http://www.w3.org/1999/xlink" version="1.1" id="Capa_1" x="0px" y="0px" viewBox="0 0 297 297" style="enable-background:new 0 0 297 297;" xml:space="preserve" width="512px" height="512px">
<path d="M223.73,112.843c-0.959,0-1.909,0.035-2.859,0.072l-14.457-65.066c-1.331-5.987-6.642-10.247-12.775-10.247h-30.091  c-7.228,0-13.086,5.858-13.086,13.086s5.858,13.086,13.086,13.086h19.593l12.178,54.806c-22.452,9.481-39.209,29.854-43.664,54.454  h-6.308c-4.445-24.548-21.138-44.885-43.518-54.394l2.604-11.604h19.618c7.228,0,13.086-5.858,13.086-13.086  c0-7.228-5.858-13.086-13.086-13.086H63.867c-7.228,0-13.087,5.858-13.087,13.086c0,7.227,5.859,13.086,13.087,13.086h13.742  l-1.321,5.883c-1.002-0.041-2.006-0.076-3.018-0.076C32.868,112.843,0,145.715,0,186.12c0,40.406,32.868,73.278,73.27,73.278  c35.934,0,65.886-26.012,72.075-60.192h6.308c6.191,34.181,36.143,60.192,72.076,60.192c40.402,0,73.27-32.872,73.27-73.278  C297,145.715,264.132,112.843,223.73,112.843z M201.144,144.799l6.273,28.234h-28.922  C182.012,160.899,190.274,150.766,201.144,144.799z M118.505,173.033H89.619l6.326-28.184  C106.77,150.823,114.999,160.933,118.505,173.033z M73.27,233.226c-25.97,0-47.098-21.132-47.098-47.105  c0-25.013,19.596-45.524,44.236-47.01l-9.908,44.144c-0.869,3.877,0.069,7.94,2.552,11.044c2.484,3.103,6.243,4.908,10.218,4.908  h45.234C112.819,218.832,94.7,233.226,73.27,233.226z M223.73,233.226c-21.43,0-39.549-14.394-45.234-34.02h45.234  c3.97,0,7.725-1.802,10.209-4.898c2.482-3.097,3.428-7.153,2.566-11.027l-9.813-44.163c24.592,1.535,44.135,22.024,44.135,47.002  C270.827,212.094,249.699,233.226,223.73,233.226z" fill="#FFFFFF"/>
<g>
</g>
<g>
</g>
<g>
</g>
<g>
</g>
<g>
</g>
<g>
</g>
<g>
</g>
<g>
</g>
<g>
</g>
<g>
</g>
<g>
</g>
<g>
</g>
<g>
</g>
<g>
</g>
<g>
</g>
</svg>
