<svg xmlns="http://www.w3.org/2000/svg" viewBox="0 0 568.1 107.6" enable-background="new 0 0 568.1 107.6"><g fill="#fff"><path d="M208.3 60.6c-6.3 5-15.4 7.5-27.2 7.4h-22.6v36.7H136V2.7h46.5c10.7 0 19.3 2.6 25.7 7.9 6.4 5.3 9.6 13.4 9.6 24.4.1 12.1-3.1 20.6-9.5 25.6zm-17.2-36.7c-2.9-2.3-6.9-3.4-12.1-3.4h-20.4v30H179c5.2 0 9.2-1.2 12.1-3.7 2.9-2.4 4.3-6.3 4.3-11.6s-1.5-9.1-4.3-11.3zM221.4 2.8h23v62.6c0 7 .9 12.1 2.6 15.4 2.7 5.7 8.7 8.6 17.9 8.6 9.1 0 15.1-2.8 17.8-8.6 1.8-3.2 2.6-8.3 2.6-15.3V2.9h23v62.7c0 10.8-1.8 19.3-5.4 25.3-6.7 11.1-19.4 16.6-38.1 16.6-18.7 0-31.5-5.6-38.2-16.6-3.6-6-5.4-14.5-5.4-25.3l.2-62.8zM313.9 2.9h22.6v83.7h54.1v18.3l-76.8-.1.1-101.9zM414.1 73.5c.7 4.7 2.1 8.1 4.1 10.5 3.8 4.2 10.2 6.3 19.3 6.3 5.5 0 9.9-.5 13.3-1.6 6.5-2.1 9.7-6.1 9.7-11.8 0-3.4-1.6-6-4.7-7.8-3.2-1.8-8.2-3.4-15-4.8L429 61.7c-11.5-2.4-19.5-5-23.8-7.8-7.3-4.7-11-12.1-11-22.1 0-9.1 3.6-16.7 10.7-22.8 7.1-6 17.6-9 31.5-9C448 0 457.8 2.9 466 8.6c8.2 5.7 12.4 14 12.8 24.8H457c-.4-6.1-3.3-10.5-8.7-13.1-3.6-1.7-8.1-2.6-13.5-2.6-6 0-10.8 1.1-14.3 3.3-3.6 2.2-5.3 5.3-5.3 9.3 0 3.6 1.8 6.4 5.3 8.2 2.3 1.2 7.1 2.6 14.4 4.2l19 4.2c8.3 1.9 14.6 4.3 18.7 7.4 6.5 4.8 9.7 11.8 9.7 20.8 0 9.3-3.8 17.1-11.5 23.2-7.7 6.2-18.5 9.2-32.4 9.2-14.3 0-25.5-3.1-33.7-9.1-8.2-6.1-12.3-14.4-12.3-25l21.7.1zM565.4 21.1H508v21.7h52.6v17.7H508v26.2l60 .1v18.3l-82.1-.1V3l79.5.1v18z"/></g><path fill="#fff" d="M48.2 5.8C21.6 5.8 0 27.4 0 54s21.6 48.2 48.2 48.2S96.3 80.5 96.3 54 74.7 5.8 48.2 5.8zM76 61.4L53.1 49.9V74L15.8 55.5l4.4-8.9 23 11.4V33.8l37.3 18.6-4.5 9z"/></svg>